<svg width="20" height="21" viewBox="0 0 20 21" fill="none" xmlns="http://www.w3.org/2000/svg">
<path d="M13.492 2.16675H6.50866C3.47533 2.16675 1.66699 3.97508 1.66699 7.00841V13.9834C1.66699 17.0251 3.47533 18.8334 6.50866 18.8334H13.4837C16.517 18.8334 18.3253 17.0251 18.3253 13.9917V7.00841C18.3337 3.97508 16.5253 2.16675 13.492 2.16675ZM14.3837 8.80008L12.4587 11.2834C12.217 11.5917 11.8753 11.7917 11.4837 11.8334C11.092 11.8834 10.7087 11.7751 10.4003 11.5334L8.87533 10.3334C8.81699 10.2834 8.75033 10.2834 8.71699 10.2917C8.68366 10.2917 8.62533 10.3084 8.57533 10.3751L6.59199 12.9501C6.46699 13.1084 6.28366 13.1917 6.10033 13.1917C5.96699 13.1917 5.83366 13.1501 5.71699 13.0584C5.44199 12.8501 5.39199 12.4584 5.60033 12.1834L7.58366 9.60842C7.82533 9.30008 8.16699 9.10008 8.55866 9.05008C8.94199 9.00008 9.33366 9.10842 9.64199 9.35008L11.167 10.5501C11.2253 10.6001 11.2837 10.6001 11.3253 10.5917C11.3587 10.5917 11.417 10.5751 11.467 10.5084L13.392 8.02508C13.6003 7.75008 14.0003 7.70008 14.267 7.91675C14.542 8.14175 14.592 8.53341 14.3837 8.80008Z" fill="#929EAE"/>
</svg>
