<svg width="64" height="64" viewBox="0 0 64 64" fill="none" xmlns="http://www.w3.org/2000/svg">
<path fill-rule="evenodd" clip-rule="evenodd" d="M8.00004 10.6667H56C57.4728 10.6667 58.6667 9.4728 58.6667 8.00004C58.6667 6.52728 57.4728 5.33337 56 5.33337H8.00004C6.52728 5.33337 5.33337 6.52728 5.33337 8.00004C5.33337 9.4728 6.52728 10.6667 8.00004 10.6667ZM58.6667 53.3334C58.6667 54.8061 57.4728 56 56 56H8.00004C6.52728 56 5.33337 54.8061 5.33337 53.3334C5.33337 51.8606 6.52728 50.6667 8.00004 50.6667H56C57.4728 50.6667 58.6667 51.8606 58.6667 53.3334ZM8.00004 29.3334H56C57.4728 29.3334 58.6667 30.5273 58.6667 32C58.6667 33.4728 57.4728 34.6667 56 34.6667H8.00004C6.52728 34.6667 5.33337 33.4728 5.33337 32C5.33337 30.5273 6.52728 29.3334 8.00004 29.3334Z" fill="#231F20"/>
</svg>
