<svg width="64" height="64" viewBox="0 0 64 64" fill="none" xmlns="http://www.w3.org/2000/svg">
<path d="M57.8933 54.1067C58.3982 54.6074 58.6821 55.289 58.6821 56C58.6821 56.7111 58.3982 57.3927 57.8933 57.8934C57.3926 58.3982 56.711 58.6822 56 58.6822C55.289 58.6822 54.6074 58.3982 54.1067 57.8934L32 35.76L9.89333 57.8934C9.39262 58.3982 8.71103 58.6822 8 58.6822C7.28897 58.6822 6.60738 58.3982 6.10667 57.8934C5.60183 57.3927 5.31787 56.7111 5.31787 56C5.31787 55.289 5.60183 54.6074 6.10667 54.1067L28.24 32L6.10667 9.89336C5.43024 9.21694 5.16607 8.23103 5.41366 7.30702C5.66125 6.38301 6.38298 5.66127 7.30699 5.41368C8.231 5.1661 9.21691 5.43027 9.89333 6.10669L32 28.24L54.1067 6.10669C55.1523 5.06103 56.8477 5.06103 57.8933 6.10669C58.939 7.15235 58.939 8.8477 57.8933 9.89336L35.76 32L57.8933 54.1067Z" fill="#231F20"/>
</svg>
