<svg width="169" height="66" viewBox="0 0 169 66" fill="none" xmlns="http://www.w3.org/2000/svg">
<g clip-path="url(#clip0_103_2)">
<g filter="url(#filter0_d_103_2)">
<rect x="-0.65" y="-0.65" width="170.3" height="66.3" rx="33.15" fill="#4F4F4F" stroke="url(#paint0_linear_103_2)" stroke-width="1.3"/>
<mask id="mask0_103_2" style="mask-type:alpha" maskUnits="userSpaceOnUse" x="0" y="0" width="169" height="65">
<rect width="169" height="65" rx="32.5" fill="black"/>
</mask>
<g mask="url(#mask0_103_2)">
<g filter="url(#filter1_i_103_2)">
<rect width="169" height="65" rx="32.5" fill="#1F2533"/>
</g>
<path d="M14.95 19.5L15.4767 20.9233L16.9 21.45L15.4767 21.9767L14.95 23.4L14.4233 21.9767L13 21.45L14.4233 20.9233L14.95 19.5Z" fill="#DEE5F3"/>
<path d="M38.35 29.9L38.8767 31.3233L40.3 31.85L38.8767 32.3767L38.35 33.8L37.8233 32.3767L36.4 31.85L37.8233 31.3233L38.35 29.9Z" fill="#DEE5F3"/>
<path d="M20.15 53.3L20.6766 54.7233L22.1 55.25L20.6766 55.7767L20.15 57.2L19.6233 55.7767L18.2 55.25L19.6233 54.7233L20.15 53.3Z" fill="#DEE5F3"/>
<path d="M26.65 33.8L26.8256 34.2744L27.3 34.45L26.8256 34.6256L26.65 35.1L26.4744 34.6256L26 34.45L26.4744 34.2744L26.65 33.8Z" fill="#DEE5F3"/>
<path d="M16.25 42.9L16.4255 43.3744L16.9 43.55L16.4255 43.7256L16.25 44.2L16.0744 43.7256L15.6 43.55L16.0744 43.3744L16.25 42.9Z" fill="#DEE5F3"/>
<path d="M30.875 55.9L31.1384 56.6117L31.85 56.875L31.1384 57.1383L30.875 57.85L30.6117 57.1383L29.9 56.875L30.6117 56.6117L30.875 55.9Z" fill="#DEE5F3"/>
<g filter="url(#filter2_f_103_2)">
<path d="M13.975 29.9L14.2383 30.6117L14.95 30.875L14.2383 31.1383L13.975 31.85L13.7117 31.1383L13 30.875L13.7117 30.6117L13.975 29.9Z" fill="#DEE5F3"/>
</g>
<path d="M8.44993 49.4L8.62549 49.8744L9.09993 50.05L8.62549 50.2256L8.44993 50.7L8.27437 50.2256L7.79993 50.05L8.27437 49.8744L8.44993 49.4Z" fill="#DEE5F3"/>
<path d="M40.9499 46.8L41.1255 47.2744L41.5999 47.45L41.1255 47.6256L40.9499 48.1L40.7744 47.6256L40.2999 47.45L40.7744 47.2744L40.9499 46.8Z" fill="#DEE5F3"/>
<path d="M29.25 13L29.4255 13.4744L29.9 13.65L29.4255 13.8256L29.25 14.3L29.0744 13.8256L28.6 13.65L29.0744 13.4744L29.25 13Z" fill="#DEE5F3"/>
<path d="M3.24998 33.8L3.42553 34.2744L3.89998 34.45L3.42553 34.6256L3.24998 35.1L3.07442 34.6256L2.59998 34.45L3.07442 34.2744L3.24998 33.8Z" fill="#DEE5F3"/>
<path d="M48.7499 6.5L49.2766 7.92332L50.6999 8.45L49.2766 8.97668L48.7499 10.4L48.2232 8.97668L46.7999 8.45L48.2232 7.92332L48.7499 6.5Z" fill="#DEE5F3"/>
<path d="M78.65 19.5L79.1766 20.9233L80.6 21.45L79.1766 21.9767L78.65 23.4L78.1233 21.9767L76.7 21.45L78.1233 20.9233L78.65 19.5Z" fill="#DEE5F3"/>
<path d="M60.4499 49.4L60.9766 50.8233L62.3999 51.35L60.9766 51.8767L60.4499 53.3L59.9232 51.8767L58.4999 51.35L59.9232 50.8233L60.4499 49.4Z" fill="#DEE5F3"/>
<path d="M66.9499 23.4L67.1255 23.8744L67.5999 24.05L67.1255 24.2256L66.9499 24.7L66.7744 24.2256L66.2999 24.05L66.7744 23.8744L66.9499 23.4Z" fill="#DEE5F3"/>
<path d="M61.7499 37.7L61.9254 38.1744L62.3999 38.35L61.9254 38.5256L61.7499 39L61.5743 38.5256L61.0999 38.35L61.5743 38.1744L61.7499 37.7Z" fill="#DEE5F3"/>
<path d="M68.5749 31.2L68.8382 31.9117L69.5499 32.175L68.8382 32.4383L68.5749 33.15L68.3115 32.4383L67.5999 32.175L68.3115 31.9117L68.5749 31.2Z" fill="#DEE5F3"/>
<g filter="url(#filter3_f_103_2)">
<path d="M54.2749 19.5L54.5383 20.2117L55.2499 20.475L54.5383 20.7383L54.2749 21.45L54.0116 20.7383L53.2999 20.475L54.0116 20.2117L54.2749 19.5Z" fill="#DEE5F3"/>
</g>
<g filter="url(#filter4_f_103_2)">
<path d="M48.7499 37.7L48.9254 38.1744L49.3999 38.35L48.9254 38.5256L48.7499 39L48.5743 38.5256L48.0999 38.35L48.5743 38.1744L48.7499 37.7Z" fill="#DEE5F3"/>
</g>
<path d="M81.2499 36.4L81.4254 36.8744L81.8999 37.05L81.4254 37.2256L81.2499 37.7L81.0743 37.2256L80.5999 37.05L81.0743 36.8744L81.2499 36.4Z" fill="#DEE5F3"/>
<path d="M74.7499 10.4L74.9254 10.8744L75.3999 11.05L74.9254 11.2256L74.7499 11.7L74.5743 11.2256L74.0999 11.05L74.5743 10.8744L74.7499 10.4Z" fill="#DEE5F3"/>
<path d="M43.5499 23.4L43.7255 23.8744L44.1999 24.05L43.7255 24.2256L43.5499 24.7L43.3743 24.2256L42.8999 24.05L43.3743 23.8744L43.5499 23.4Z" fill="#DEE5F3"/>
</g>
</g>
<g filter="url(#filter5_dii_103_2)">
<rect width="53.6474" height="53.6474" rx="26.8237" transform="matrix(-1 3.99602e-09 3.99602e-09 1 163.1 5.70264)" fill="#DEE5F3"/>
</g>
<path opacity="0.9" d="M135.59 8.92778C124.708 6.32605 113.756 12.9513 111.01 23.7969L110.896 24.2434C108.113 35.2332 114.882 46.3698 125.919 48.9601V48.9601V48.9601C136.99 51.5587 148.129 44.6303 150.728 33.5586V33.5586C153.301 22.5953 146.542 11.5465 135.59 8.92778V8.92778Z" fill="#1F2533" fill-opacity="0.79"/>
</g>
<defs>
<filter id="filter0_d_103_2" x="-5.30005" y="-1.3" width="179.6" height="75.6" filterUnits="userSpaceOnUse" color-interpolation-filters="sRGB">
<feFlood flood-opacity="0" result="BackgroundImageFix"/>
<feColorMatrix in="SourceAlpha" type="matrix" values="0 0 0 0 0 0 0 0 0 0 0 0 0 0 0 0 0 0 127 0" result="hardAlpha"/>
<feOffset dy="4"/>
<feGaussianBlur stdDeviation="2"/>
<feComposite in2="hardAlpha" operator="out"/>
<feColorMatrix type="matrix" values="0 0 0 0 0 0 0 0 0 0 0 0 0 0 0 0 0 0 0.25 0"/>
<feBlend mode="normal" in2="BackgroundImageFix" result="effect1_dropShadow_103_2"/>
<feBlend mode="normal" in="SourceGraphic" in2="effect1_dropShadow_103_2" result="shape"/>
</filter>
<filter id="filter1_i_103_2" x="0" y="0" width="169" height="72.8" filterUnits="userSpaceOnUse" color-interpolation-filters="sRGB">
<feFlood flood-opacity="0" result="BackgroundImageFix"/>
<feBlend mode="normal" in="SourceGraphic" in2="BackgroundImageFix" result="shape"/>
<feColorMatrix in="SourceAlpha" type="matrix" values="0 0 0 0 0 0 0 0 0 0 0 0 0 0 0 0 0 0 127 0" result="hardAlpha"/>
<feOffset dy="7.8"/>
<feGaussianBlur stdDeviation="5.85"/>
<feComposite in2="hardAlpha" operator="arithmetic" k2="-1" k3="1"/>
<feColorMatrix type="matrix" values="0 0 0 0 0.0903125 0 0 0 0 0.105719 0 0 0 0 0.141667 0 0 0 1 0"/>
<feBlend mode="normal" in2="shape" result="effect1_innerShadow_103_2"/>
</filter>
<filter id="filter2_f_103_2" x="12.74" y="29.64" width="2.46995" height="2.47" filterUnits="userSpaceOnUse" color-interpolation-filters="sRGB">
<feFlood flood-opacity="0" result="BackgroundImageFix"/>
<feBlend mode="normal" in="SourceGraphic" in2="BackgroundImageFix" result="shape"/>
<feGaussianBlur stdDeviation="0.13" result="effect1_foregroundBlur_103_2"/>
</filter>
<filter id="filter3_f_103_2" x="53.0399" y="19.24" width="2.46995" height="2.47" filterUnits="userSpaceOnUse" color-interpolation-filters="sRGB">
<feFlood flood-opacity="0" result="BackgroundImageFix"/>
<feBlend mode="normal" in="SourceGraphic" in2="BackgroundImageFix" result="shape"/>
<feGaussianBlur stdDeviation="0.13" result="effect1_foregroundBlur_103_2"/>
</filter>
<filter id="filter4_f_103_2" x="47.8399" y="37.44" width="1.82005" height="1.82" filterUnits="userSpaceOnUse" color-interpolation-filters="sRGB">
<feFlood flood-opacity="0" result="BackgroundImageFix"/>
<feBlend mode="normal" in="SourceGraphic" in2="BackgroundImageFix" result="shape"/>
<feGaussianBlur stdDeviation="0.13" result="effect1_foregroundBlur_103_2"/>
</filter>
<filter id="filter5_dii_103_2" x="86.0526" y="-13.7974" width="92.6473" height="92.6474" filterUnits="userSpaceOnUse" color-interpolation-filters="sRGB">
<feFlood flood-opacity="0" result="BackgroundImageFix"/>
<feColorMatrix in="SourceAlpha" type="matrix" values="0 0 0 0 0 0 0 0 0 0 0 0 0 0 0 0 0 0 127 0" result="hardAlpha"/>
<feOffset dx="-3.9"/>
<feGaussianBlur stdDeviation="9.75"/>
<feColorMatrix type="matrix" values="0 0 0 0 0.717122 0 0 0 0 0.717122 0 0 0 0 0.717122 0 0 0 0.31 0"/>
<feBlend mode="normal" in2="BackgroundImageFix" result="effect1_dropShadow_103_2"/>
<feBlend mode="normal" in="SourceGraphic" in2="effect1_dropShadow_103_2" result="shape"/>
<feColorMatrix in="SourceAlpha" type="matrix" values="0 0 0 0 0 0 0 0 0 0 0 0 0 0 0 0 0 0 127 0" result="hardAlpha"/>
<feOffset dy="2.6"/>
<feGaussianBlur stdDeviation="2.6"/>
<feComposite in2="hardAlpha" operator="arithmetic" k2="-1" k3="1"/>
<feColorMatrix type="matrix" values="0 0 0 0 0.747882 0 0 0 0 0.749977 0 0 0 0 0.754167 0 0 0 1 0"/>
<feBlend mode="normal" in2="shape" result="effect2_innerShadow_103_2"/>
<feColorMatrix in="SourceAlpha" type="matrix" values="0 0 0 0 0 0 0 0 0 0 0 0 0 0 0 0 0 0 127 0" result="hardAlpha"/>
<feOffset dy="-2.6"/>
<feGaussianBlur stdDeviation="2.6"/>
<feComposite in2="hardAlpha" operator="arithmetic" k2="-1" k3="1"/>
<feColorMatrix type="matrix" values="0 0 0 0 1 0 0 0 0 1 0 0 0 0 1 0 0 0 1 0"/>
<feBlend mode="normal" in2="effect2_innerShadow_103_2" result="effect3_innerShadow_103_2"/>
</filter>
<linearGradient id="paint0_linear_103_2" x1="86.45" y1="-15.6" x2="87.1" y2="85.15" gradientUnits="userSpaceOnUse">
<stop offset="0.125"/>
<stop offset="1" stop-color="white" stop-opacity="0"/>
</linearGradient>
<clipPath id="clip0_103_2">
<rect width="169" height="66" fill="white"/>
</clipPath>
</defs>
</svg>
