<svg width="20" height="21" viewBox="0 0 20 21" fill="none" xmlns="http://www.w3.org/2000/svg">
<path d="M16.6998 6.18471L11.8998 2.82637C10.5915 1.90971 8.58318 1.95971 7.32487 2.93471L3.14987 6.19304C2.31654 6.84304 1.6582 8.17637 1.6582 9.22633V14.9763C1.6582 17.1013 3.3832 18.8347 5.5082 18.8347H14.4915C16.6165 18.8347 18.3415 17.1097 18.3415 14.9847V9.33466C18.3415 8.20971 17.6165 6.82637 16.6998 6.18471ZM10.6248 15.5013C10.6248 15.843 10.3415 16.1263 9.99985 16.1263C9.65818 16.1263 9.37485 15.843 9.37485 15.5013V13.0013C9.37485 12.6597 9.65818 12.3763 9.99985 12.3763C10.3415 12.3763 10.6248 12.6597 10.6248 13.0013V15.5013Z" fill="#929EAE"/>
</svg>
