<svg width="169" height="66" viewBox="0 0 169 66" fill="none" xmlns="http://www.w3.org/2000/svg">
<g clip-path="url(#clip0_1_2)">
<rect x="-0.65" y="-0.65" width="170.3" height="66.3" rx="33.15" fill="#A2D1FD" stroke="url(#paint0_linear_1_2)" stroke-width="1.3"/>
<mask id="mask0_1_2" style="mask-type:alpha" maskUnits="userSpaceOnUse" x="0" y="0" width="169" height="65">
<rect width="169" height="65" rx="32.5" fill="#E0FDFF"/>
</mask>
<g mask="url(#mask0_1_2)">
<g filter="url(#filter0_i_1_2)">
<rect width="169" height="65" rx="32.5" fill="#A2D1FD"/>
</g>
<g opacity="0.95">
<circle cx="92.2504" cy="58.8421" r="13.65" transform="rotate(-3.84411 92.2504 58.8421)" fill="white"/>
<circle cx="111.184" cy="49.7524" r="13.65" transform="rotate(-3.84411 111.184 49.7524)" fill="white"/>
<circle cx="112.229" cy="65.3172" r="13.65" transform="rotate(-3.84411 112.229 65.3172)" fill="white"/>
<circle cx="128.307" cy="52.5106" r="13.65" transform="rotate(-3.84411 128.307 52.5106)" fill="white"/>
<circle cx="135.664" cy="65.0455" r="13.65" transform="rotate(-3.84411 135.664 65.0455)" fill="white"/>
<circle cx="149.322" cy="55.0073" r="13.65" transform="rotate(-3.84411 149.322 55.0073)" fill="white"/>
</g>
<g opacity="0.95">
<circle cx="24.1572" cy="71.0981" r="13.65" transform="rotate(-3.84411 24.1572 71.0981)" fill="white"/>
<circle cx="43.0903" cy="62.0083" r="13.65" transform="rotate(-3.84411 43.0903 62.0083)" fill="white"/>
<circle cx="44.1362" cy="77.5732" r="13.65" transform="rotate(-3.84411 44.1362 77.5732)" fill="white"/>
<circle cx="60.2139" cy="64.7665" r="13.65" transform="rotate(-3.84411 60.2139 64.7665)" fill="white"/>
<circle cx="67.5708" cy="77.3015" r="13.65" transform="rotate(-3.84411 67.5708 77.3015)" fill="white"/>
<circle cx="81.2285" cy="67.2632" r="13.65" transform="rotate(-3.84411 81.2285 67.2632)" fill="white"/>
</g>
<g opacity="0.6">
<circle cx="104.091" cy="41.1957" r="13.65" transform="rotate(-3.84411 104.091 41.1957)" fill="white"/>
<circle cx="123.024" cy="32.106" r="13.65" transform="rotate(-3.84411 123.024 32.106)" fill="white"/>
<circle cx="124.07" cy="47.6709" r="13.65" transform="rotate(-3.84411 124.07 47.6709)" fill="white"/>
<circle cx="140.148" cy="34.8642" r="13.65" transform="rotate(-3.84411 140.148 34.8642)" fill="white"/>
<circle cx="147.505" cy="47.3992" r="13.65" transform="rotate(-3.84411 147.505 47.3992)" fill="white"/>
<circle cx="161.162" cy="37.3609" r="13.65" transform="rotate(-3.84411 161.162 37.3609)" fill="white"/>
</g>
<g opacity="0.6">
<circle cx="46.4171" cy="62.9256" r="13.65" transform="rotate(-4.59401 46.4171 62.9256)" fill="white"/>
<circle cx="65.2297" cy="53.5888" r="13.65" transform="rotate(-4.59401 65.2297 53.5888)" fill="white"/>
<circle cx="66.4791" cy="69.1387" r="13.65" transform="rotate(-4.59401 66.4791 69.1387)" fill="white"/>
<circle cx="82.3878" cy="56.1227" r="13.65" transform="rotate(-4.59401 82.3878 56.1227)" fill="white"/>
<circle cx="89.9081" cy="68.5603" r="13.65" transform="rotate(-4.59401 89.9081 68.5603)" fill="white"/>
<circle cx="103.433" cy="58.3442" r="13.65" transform="rotate(-4.59401 103.433 58.3442)" fill="white"/>
</g>
</g>
<g filter="url(#filter1_ddii_1_2)">
<rect width="53.6517" height="53.6517" rx="26.8258" transform="matrix(-1 3.99602e-09 3.99602e-09 1 58.8842 5.74835)" fill="#FFC187" fill-opacity="0.96"/>
</g>
</g>
<defs>
<filter id="filter0_i_1_2" x="0" y="0" width="169" height="72.8" filterUnits="userSpaceOnUse" color-interpolation-filters="sRGB">
<feFlood flood-opacity="0" result="BackgroundImageFix"/>
<feBlend mode="normal" in="SourceGraphic" in2="BackgroundImageFix" result="shape"/>
<feColorMatrix in="SourceAlpha" type="matrix" values="0 0 0 0 0 0 0 0 0 0 0 0 0 0 0 0 0 0 127 0" result="hardAlpha"/>
<feOffset dy="7.8"/>
<feGaussianBlur stdDeviation="5.85"/>
<feComposite in2="hardAlpha" operator="arithmetic" k2="-1" k3="1"/>
<feColorMatrix type="matrix" values="0 0 0 0 0.445833 0 0 0 0 0.734 0 0 0 0 1 0 0 0 1 0"/>
<feBlend mode="normal" in2="shape" result="effect1_innerShadow_1_2"/>
</filter>
<filter id="filter1_ddii_1_2" x="-6.46746" y="-5.95165" width="77.0516" height="77.0517" filterUnits="userSpaceOnUse" color-interpolation-filters="sRGB">
<feFlood flood-opacity="0" result="BackgroundImageFix"/>
<feColorMatrix in="SourceAlpha" type="matrix" values="0 0 0 0 0 0 0 0 0 0 0 0 0 0 0 0 0 0 127 0" result="hardAlpha"/>
<feOffset/>
<feGaussianBlur stdDeviation="5.85"/>
<feColorMatrix type="matrix" values="0 0 0 0 1 0 0 0 0 0.756863 0 0 0 0 0.529412 0 0 0 0.6 0"/>
<feBlend mode="normal" in2="BackgroundImageFix" result="effect1_dropShadow_1_2"/>
<feColorMatrix in="SourceAlpha" type="matrix" values="0 0 0 0 0 0 0 0 0 0 0 0 0 0 0 0 0 0 127 0" result="hardAlpha"/>
<feOffset dx="-3.9" dy="6.5"/>
<feGaussianBlur stdDeviation="2.6"/>
<feColorMatrix type="matrix" values="0 0 0 0 0.717122 0 0 0 0 0.717122 0 0 0 0 0.717122 0 0 0 0.35 0"/>
<feBlend mode="normal" in2="effect1_dropShadow_1_2" result="effect2_dropShadow_1_2"/>
<feBlend mode="normal" in="SourceGraphic" in2="effect2_dropShadow_1_2" result="shape"/>
<feColorMatrix in="SourceAlpha" type="matrix" values="0 0 0 0 0 0 0 0 0 0 0 0 0 0 0 0 0 0 127 0" result="hardAlpha"/>
<feOffset dy="2.6"/>
<feGaussianBlur stdDeviation="2.6"/>
<feComposite in2="hardAlpha" operator="arithmetic" k2="-1" k3="1"/>
<feColorMatrix type="matrix" values="0 0 0 0 1 0 0 0 0 0.816106 0 0 0 0 0.645833 0 0 0 1 0"/>
<feBlend mode="normal" in2="shape" result="effect3_innerShadow_1_2"/>
<feColorMatrix in="SourceAlpha" type="matrix" values="0 0 0 0 0 0 0 0 0 0 0 0 0 0 0 0 0 0 127 0" result="hardAlpha"/>
<feOffset dy="-2.6"/>
<feGaussianBlur stdDeviation="2.6"/>
<feComposite in2="hardAlpha" operator="arithmetic" k2="-1" k3="1"/>
<feColorMatrix type="matrix" values="0 0 0 0 1 0 0 0 0 0.631795 0 0 0 0 0.2875 0 0 0 1 0"/>
<feBlend mode="normal" in2="effect3_innerShadow_1_2" result="effect4_innerShadow_1_2"/>
</filter>
<linearGradient id="paint0_linear_1_2" x1="86.45" y1="-15.6" x2="87.1" y2="85.15" gradientUnits="userSpaceOnUse">
<stop offset="0.125" stop-color="#6CB8FF"/>
<stop offset="1" stop-color="white" stop-opacity="0"/>
</linearGradient>
<clipPath id="clip0_1_2">
<rect width="169" height="66" fill="white"/>
</clipPath>
</defs>
</svg>
