<?xml version="1.0" encoding="UTF-8" standalone="no"?>
<svg
   xmlns:dc="http://purl.org/dc/elements/1.1/"
   xmlns:cc="http://creativecommons.org/ns#"
   xmlns:rdf="http://www.w3.org/1999/02/22-rdf-syntax-ns#"
   xmlns:svg="http://www.w3.org/2000/svg"
   xmlns="http://www.w3.org/2000/svg"
   xmlns:sodipodi="http://sodipodi.sourceforge.net/DTD/sodipodi-0.dtd"
   xmlns:inkscape="http://www.inkscape.org/namespaces/inkscape"
   width="30"
   height="30"
   viewBox="0 0 30 30"
   fill="none"
   version="1.1"
   id="svg14"
   sodipodi:docname="Logo.svg"
   inkscape:version="1.0.1 (c497b03c, 2020-09-10)">
  <metadata
     id="metadata20">
    <rdf:RDF>
      <cc:Work
         rdf:about="">
        <dc:format>image/svg+xml</dc:format>
        <dc:type
           rdf:resource="http://purl.org/dc/dcmitype/StillImage" />
      </cc:Work>
    </rdf:RDF>
  </metadata>
  <defs
     id="defs18" />
  <sodipodi:namedview
     pagecolor="#ffffff"
     bordercolor="#666666"
     borderopacity="1"
     objecttolerance="10"
     gridtolerance="10"
     guidetolerance="10"
     inkscape:pageopacity="0"
     inkscape:pageshadow="2"
     inkscape:window-width="1920"
     inkscape:window-height="1080"
     id="namedview16"
     showgrid="false"
     inkscape:zoom="7.0819672"
     inkscape:cx="61"
     inkscape:cy="15"
     inkscape:window-x="0"
     inkscape:window-y="0"
     inkscape:window-maximized="0"
     inkscape:current-layer="svg14" />
  <path
     fill-rule="evenodd"
     clip-rule="evenodd"
     d="M 8,0 C 3.58172,0 0,3.58172 0,8 v 14 c 0,0.1899 0.00661649,0.3783 0.0196315,0.5648 C 0.0129944,22.5744 0.00645061,22.5836 0,22.5927 0,22.9378 0.0426053,23.2176 0.127821,23.4321 0.80282,27.167 4.07057,30 8,30 h 14 c 4.4183,0 8,-3.5817 8,-8 V 19.9851 8 C 30,3.58172 26.4183,0 22,0 Z m 22,19.9851 c 0,0.3135 -0.0837,0.6127 -0.251,0.8977 -0.1395,0.2565 -0.3627,0.456 -0.6695,0.5985 -0.2232,0.1425 -0.6276,0.3704 -1.2134,0.6839 l -1.841,0.9405 c -0.6695,0.3135 -1.311,0.6269 -1.9247,0.9404 -0.5858,0.3135 -1.0042,0.5272 -1.2552,0.6412 -0.5579,0.2565 -0.9902,0.4275 -1.2971,0.513 -0.2789,0.057 -0.6694,0.0855 -1.1715,0.0855 -0.53,0 -1.0182,-0.0997 -1.4645,-0.2992 -0.4184,-0.1995 -0.7671,-0.4845 -1.046,-0.855 -0.2789,-0.3705 -0.4742,-0.7837 -0.5858,-1.2397 -0.1115,-0.4844 -0.0976,-0.9974 0.0419,-1.5389 0,-0.9119 0.1534,-1.7526 0.4602,-2.5221 0.3348,-0.7979 0.6974,-1.5531 1.0879,-2.2656 0.4184,-0.741 0.781,-1.4677 1.0879,-2.1801 0.3347,-0.741 0.5021,-1.5247 0.5021,-2.3511 -0.6137,0 -1.2692,0.1995 -1.9666,0.5984 -0.6973,0.399 -1.4086,0.9262 -2.1339,1.5817 -0.6973,0.6554 -1.3947,1.3964 -2.092,2.2229 -0.6695,0.7979 -1.311,1.6101 -1.9247,2.4366 -0.5858,0.7979 -1.1018,1.5674 -1.5481,2.3083 -0.4184,0.741 -0.7392,1.3537 -0.96236,1.8382 -0.05579,0.0285 -0.19526,0.057 -0.41841,0.0855 H 8.99582 c -0.44631,0.228 -0.72525,0.228 -0.83682,0 -0.08369,-0.2565 -0.08369,-0.6412 0,-1.1542 0.11157,-0.513 0.27894,-1.0829 0.50209,-1.7099 0.22315,-0.6555 0.43235,-1.2682 0.62761,-1.8382 0.22316,-0.5984 0.39052,-1.0829 0.50209,-1.4534 0.11158,-0.3989 0.12553,-0.5984 0.04185,-0.5984 0.08368,-0.114 0.18126,-0.2993 0.29286,-0.5558 0.1116,-0.2564 0.2232,-0.5272 0.3348,-0.8122 0.1115,-0.2849 0.2092,-0.5414 0.2928,-0.7694 0.0837,-0.2565 0.1256,-0.456 0.1256,-0.5985 0,-0.2565 -0.0977,-0.4132 -0.2929,-0.4702 C 10.4184,13.06 10.251,13.0173 10.0837,13.0173 9.58159,12.7323 9.03766,12.9033 8.45188,13.5302 7.894,14.1287 7.28033,14.9979 6.61088,16.1378 5.96932,17.2493 5.25802,18.5317 4.47699,19.9851 3.72385,21.41 2.88703,22.7922 1.96653,24.1316 1.32497,24.1316 0.83682,24.0461 0.502092,23.8751 0.336255,23.7904 0.211496,23.6427 0.127821,23.4321 0.0764672,23.148 0.0401206,22.8586 0.0196315,22.5648 0.242597,22.2452 0.570781,21.6703 1.00418,20.8401 c 0.44631,-0.8835 0.9484,-1.8524 1.50628,-2.9069 0.55788,-1.0544 1.14365,-2.1231 1.75732,-3.206 0.64156,-1.083 1.24129,-1.9949 1.79917,-2.7359 0.58577,-0.7694 1.10181,-1.2824 1.54811,-1.5389 0.4742,-0.285 0.85077,-0.1567 1.12971,0.3847 0.4742,-0.3134 0.99024,-0.5842 1.54813,-0.8122 0.5858,-0.228 1.1715,-0.342 1.7573,-0.342 0.3905,0 0.7113,0.1283 0.9624,0.3848 0.2789,0.228 0.4881,0.5272 0.6276,0.8977 0.1673,0.342 0.2929,0.7124 0.3765,1.1114 0.0837,0.3705 0.1256,0.6982 0.1256,0.9832 0.3068,-0.1995 0.8089,-0.5415 1.5062,-1.0259 0.7253,-0.513 1.4924,-1.026 2.3013,-1.5389 0.8368,-0.513 1.6457,-0.9547 2.4268,-1.32522 0.8089,-0.39898 1.4644,-0.59847 1.9665,-0.59847 0.4463,0 0.8229,0.17099 1.1297,0.51297 0.3347,0.31349 0.5021,0.71242 0.5021,1.19692 -1.0042,2.5079 -1.7992,4.517 -2.3849,6.0274 -0.5579,1.5104 -0.9345,2.6931 -1.1297,3.5481 -0.1674,0.8264 -0.1674,1.4249 0,1.7954 0.1952,0.3419 0.5299,0.6127 1.0041,0.8122 0.7532,0 1.4784,-0.1283 2.1758,-0.3848 0.6973,-0.2565 1.3807,-0.5414 2.0502,-0.8549 0.6973,-0.3135 1.3947,-0.5985 2.092,-0.855 C 28.4798,20.1133 29.219,19.9851 30,19.9851 Z"
     fill="#1b212d"
     id="path10" />
</svg>
